<svg width="350" height="220" viewBox="0 0 350 220" fill="none" xmlns="http://www.w3.org/2000/svg">
<path d="M175 220C271.118 220 349.038 214.131 349.038 206.892C349.038 199.653 271.118 193.784 175 193.784C78.8817 193.784 0.962402 199.653 0.962402 206.892C0.962402 214.131 78.8817 220 175 220Z" fill="#EBEBEB"/>
<path d="M14.7064 171.622L46.5867 176.441C46.5867 176.441 32.7904 131.943 20.6916 131.552C8.59288 131.161 14.7064 171.622 14.7064 171.622Z" fill="#FFD415"/>
<path opacity="0.5" d="M14.7064 171.622L46.5867 176.441C46.5867 176.441 32.7904 131.943 20.6916 131.552C8.59288 131.161 14.7064 171.622 14.7064 171.622Z" fill="black"/>
<path d="M121.274 193.352L169.902 189.269C169.902 189.269 148.225 124.47 130.082 128.647C104.496 134.533 121.274 193.352 121.274 193.352Z" fill="#FFD415"/>
<g opacity="0.5">
<path d="M121.274 193.352L169.902 189.269C169.902 189.269 148.225 124.47 130.082 128.647C104.496 134.533 121.274 193.352 121.274 193.352Z" fill="black"/>
</g>
<path d="M241.677 98.6624L243.457 98.0207C243.457 98.0207 243.457 91.3413 243.457 91.1838C243.457 91.0263 246.846 89.0896 247.75 88.9321C248.654 88.7746 257.253 89.8246 258.525 91.0497C259.796 92.2747 257.865 99.1641 257.294 99.8291C256.722 100.494 248.38 100.873 247.96 100.873C247.54 100.873 241.672 100.138 241.672 100.138L241.677 98.6624Z" fill="#FFD415"/>
<path opacity="0.2" d="M258.233 93.9315C253.744 94.9553 249.082 94.9553 244.594 93.9315C249.121 93.3511 253.705 93.3511 258.233 93.9315Z" fill="black"/>
<path opacity="0.1" d="M241.677 98.6623V100.156C241.677 100.156 247.558 100.897 247.972 100.897C248.386 100.897 256.722 100.506 257.305 99.8407C257.743 99.3449 258.956 95.238 258.956 92.7588V92.7063C258.688 93.7155 254.155 97.1223 250.632 97.7465C247.108 98.3707 243.48 94.9114 243.48 94.9114C243.48 96.5098 243.48 98.0207 243.48 98.0207L241.677 98.6623Z" fill="black"/>
<path opacity="0.4" d="M243.456 91.1837C245.124 91.1837 255.321 91.6387 258.115 90.787C256.004 89.6728 248.583 88.7919 247.749 88.9319C246.224 89.4869 244.78 90.2442 243.456 91.1837Z" fill="white"/>
<path d="M112.622 103.673C112.622 103.673 113.882 101.754 114.705 101.608C115.527 101.462 118.391 101.223 118.391 101.223C118.391 101.223 117.761 100.103 117.907 97.6298C118.053 95.1563 119.797 85.7527 121.203 84.9243C122.609 84.096 130.368 83.0401 132.649 84.3701C134.929 85.7002 137.403 97.5364 137.403 98.6973C137.347 99.4981 137.041 100.261 136.528 100.879C136.528 100.879 139.485 101.27 140.261 101.754C141.037 102.238 143.318 106.071 143.318 106.071L112.622 103.673Z" fill="#C7C7C7"/>
<path d="M124.015 101.416C124.015 101.416 120.958 102.53 120.766 103.02C120.573 103.51 120.369 104.088 120.299 104.274L112.616 103.691C112.616 103.691 113.877 101.772 114.705 101.632C115.533 101.492 118.392 101.241 118.392 101.241C118.392 101.241 117.762 100.127 117.902 97.6532C118.042 95.1798 119.798 85.7703 121.203 84.9478C122.209 84.5258 123.27 84.2508 124.354 84.1311C122.218 84.907 121.588 90.303 121.349 92.7064C121.139 94.7656 120.766 98.7441 121.833 100.173C122.253 100.716 124.015 101.416 124.015 101.416Z" fill="#A6A6A6"/>
<path d="M65.1606 103.673C65.1606 103.673 66.4207 101.754 67.2432 101.608C68.0657 101.462 70.93 101.223 70.93 101.223C70.93 101.223 70.3 100.103 70.4458 97.6298C70.5917 95.1563 72.3359 85.7527 73.7418 84.9243C75.1476 84.096 82.9121 83.0401 85.1872 84.3701C87.4622 85.7002 89.9415 97.5364 89.9415 98.6973C89.886 99.4973 89.5822 100.26 89.0723 100.879C89.0723 100.879 92.0299 101.27 92.8057 101.754C93.5816 102.238 95.8567 106.071 95.8567 106.071L65.1606 103.673Z" fill="#C7C7C7"/>
<path d="M76.5594 101.416C76.5594 101.416 73.5026 102.53 73.3101 103.02C73.1176 103.51 72.9134 104.088 72.8434 104.274L65.1606 103.691C65.1606 103.691 66.4207 101.772 67.249 101.632C68.0774 101.492 70.9358 101.241 70.9358 101.241C70.9358 101.241 70.3058 100.127 70.4458 97.6532C70.5858 95.1798 72.3417 85.7703 73.7476 84.9478C74.753 84.5258 75.8139 84.2508 76.8977 84.1311C74.7626 84.907 74.1326 90.303 73.8934 92.7064C73.6834 94.7656 73.3101 98.7441 74.3776 100.173C74.7976 100.716 76.5594 101.416 76.5594 101.416Z" fill="#A6A6A6"/>
<path d="M86.8146 106.701C86.8146 106.701 88.2671 104.49 89.218 104.327C90.1689 104.163 93.459 103.877 93.459 103.877C93.459 103.877 92.7356 102.594 92.9048 99.7414C93.074 96.8888 95.0807 86.056 96.7024 85.1051C98.3241 84.1542 107.261 82.935 109.886 84.4634C112.511 85.9918 115.364 99.6306 115.364 100.972C115.298 101.895 114.945 102.774 114.355 103.487C114.355 103.487 117.761 103.93 118.66 104.49C119.558 105.05 122.16 109.466 122.16 109.466L86.8146 106.701Z" fill="#DBDBDB"/>
<path d="M99.9402 104.099C99.9402 104.099 96.4401 105.383 96.2009 105.948C96.0084 106.415 95.7401 107.179 95.6643 107.389L86.809 106.701C86.809 106.701 88.2615 104.49 89.2182 104.327C90.1749 104.163 93.465 103.878 93.465 103.878C93.465 103.878 92.7358 102.594 92.8817 99.7415C93.0275 96.8889 95.0634 86.0561 96.6851 85.1052C97.8491 84.619 99.077 84.3027 100.331 84.166C97.8752 85.0585 97.146 91.2771 96.8718 94.048C96.6268 96.4164 96.2009 101.002 97.4552 102.647C97.9102 103.3 99.9402 104.099 99.9402 104.099Z" fill="#C7C7C7"/>
<path d="M151.333 106.701C151.333 106.701 152.786 104.49 153.737 104.327C154.688 104.163 157.984 103.877 157.984 103.877C157.984 103.877 157.26 102.594 157.4 99.7414C157.54 96.8888 159.582 86.056 161.204 85.1051C162.825 84.1542 171.762 82.935 174.388 84.4634C177.013 85.9918 179.859 99.6306 179.859 100.972C179.794 101.894 179.444 102.773 178.856 103.487C178.856 103.487 182.263 103.93 183.155 104.49C184.048 105.05 186.655 109.466 186.655 109.466L151.333 106.701Z" fill="#DBDBDB"/>
<path d="M164.465 104.099C164.465 104.099 160.965 105.383 160.72 105.948C160.533 106.415 160.265 107.179 160.183 107.389L151.333 106.701C151.333 106.701 152.786 104.49 153.737 104.327C154.688 104.163 157.989 103.878 157.989 103.878C157.989 103.878 157.26 102.594 157.406 99.7415C157.552 96.8889 159.588 86.0561 161.21 85.1052C162.368 84.6198 163.59 84.3035 164.838 84.166C162.376 85.0585 161.653 91.2771 161.379 94.048C161.134 96.4164 160.702 101.002 161.933 102.647C162.435 103.3 164.465 104.099 164.465 104.099Z" fill="#C7C7C7"/>
<path d="M52.0467 169.126C52.1633 185.162 47.6949 198.427 42.0713 198.748C41.9354 198.757 41.799 198.757 41.663 198.748H25.0258V140.635H41.663C47.2865 140.337 51.9125 153.083 52.0467 169.126Z" fill="#263238"/>
<path d="M52.0467 169.126C52.1633 185.162 47.6949 198.427 42.0713 198.748C41.9354 198.757 41.799 198.757 41.663 198.748H25.0258V140.635H41.663C47.2865 140.337 51.9125 153.083 52.0467 169.126Z" fill="black"/>
<path d="M24.8213 198.748C30.4465 198.748 35.0067 185.742 35.0067 169.697C35.0067 153.653 30.4465 140.646 24.8213 140.646C19.1961 140.646 14.636 153.653 14.636 169.697C14.636 185.742 19.1961 198.748 24.8213 198.748Z" fill="#263238"/>
<path d="M16.328 170.298C16.4213 183.657 20.2773 194.047 24.9616 193.778C29.6459 193.51 33.3911 182.694 33.2977 169.33C33.2044 155.965 29.3309 145.348 24.6408 145.617C19.9506 145.885 16.2463 156.934 16.328 170.298Z" fill="#37474F"/>
<path d="M24.8217 190.908C28.9294 190.908 32.2594 181.412 32.2594 169.697C32.2594 157.983 28.9294 148.487 24.8217 148.487C20.7139 148.487 17.3839 157.983 17.3839 169.697C17.3839 181.412 20.7139 190.908 24.8217 190.908Z" fill="#DBDBDB"/>
<path d="M24.8219 189.257C28.6075 189.257 31.6763 180.5 31.6763 169.697C31.6763 158.895 28.6075 150.138 24.8219 150.138C21.0363 150.138 17.9675 158.895 17.9675 169.697C17.9675 180.5 21.0363 189.257 24.8219 189.257Z" fill="#A6A6A6"/>
<path d="M23.7135 164.856L25.8661 164.733C25.1194 161.781 27.5811 151.193 27.5811 151.193L26.4144 150.173C25.6853 153.906 25.3177 155.009 24.6994 155.044C24.081 155.079 23.696 154.017 22.9143 150.377L21.7885 151.543C21.7885 151.543 24.4194 161.822 23.7135 164.856Z" fill="#DBDBDB"/>
<path d="M26.0469 165.095L26.7527 170.899C27.5111 167.982 31.7987 171.36 31.7987 171.36V167.953C30.3287 167.131 29.8503 166.472 29.6462 164.797C29.442 163.123 29.6462 161.758 30.6495 158.515L29.9087 155.802C29.9087 155.802 27.2778 166.075 26.0469 165.095Z" fill="#DBDBDB"/>
<path d="M26.6881 171.506L24.973 175.216C26.1864 176.383 26.3789 189.041 26.3789 189.041L27.5106 187.956C27.3298 183.715 27.4056 182.205 27.8956 181.137C28.3856 180.069 28.9223 180.285 30.3049 181.925L30.9757 179.113C30.9757 179.113 26.7464 175.146 26.6881 171.506Z" fill="#DBDBDB"/>
<path d="M24.7517 175.227L23.0016 171.727C23.0016 175.373 18.8248 179.818 18.8248 179.818L19.5365 182.549C20.8957 180.752 21.4208 180.478 21.9283 181.493C22.4358 182.508 22.5116 184.001 22.4125 188.26L23.5792 189.216C23.5792 189.216 23.5558 176.505 24.7517 175.227Z" fill="#DBDBDB"/>
<path d="M22.9139 171.12L23.5381 165.24C22.3189 166.354 19.548 156.408 19.548 156.408L18.8596 159.191C19.8747 162.318 20.1313 163.659 19.9505 165.351C19.7697 167.043 19.2972 167.755 17.8446 168.752L17.8796 172.147C17.8796 172.147 22.1148 168.268 22.9139 171.12Z" fill="#DBDBDB"/>
<path d="M22.8326 169.674C22.8326 172.812 23.766 175.303 24.8627 175.239C25.9594 175.175 26.8344 172.585 26.8111 169.446C26.7877 166.308 25.8835 163.823 24.781 163.887C23.6785 163.951 22.8093 166.541 22.8326 169.674Z" fill="#DBDBDB"/>
<path d="M179.842 175.677C180.034 196.987 172.55 214.61 163.134 215.041C162.905 215.053 162.675 215.053 162.446 215.041H139.246V137.846H162.446C171.867 137.42 179.667 154.355 179.842 175.677Z" fill="#263238"/>
<path d="M179.842 175.677C180.034 196.987 172.55 214.61 163.134 215.041C162.905 215.053 162.675 215.053 162.446 215.041H139.246V137.846H162.446C171.867 137.42 179.667 154.355 179.842 175.677Z" fill="black"/>
<path d="M138.914 215.041C148.334 215.041 155.971 197.759 155.971 176.441C155.971 155.122 148.334 137.84 138.914 137.84C129.493 137.84 121.857 155.122 121.857 176.441C121.857 197.759 129.493 215.041 138.914 215.041Z" fill="#263238"/>
<path d="M124.703 177.234C124.855 194.991 131.319 208.793 139.165 208.443C147.011 208.093 153.276 193.708 153.118 175.951C152.961 158.193 146.474 144.082 138.628 144.45C130.782 144.817 124.546 159.477 124.703 177.234Z" fill="#37474F"/>
<path d="M138.914 204.629C145.793 204.629 151.369 192.009 151.369 176.441C151.369 160.873 145.793 148.253 138.914 148.253C132.036 148.253 126.46 160.873 126.46 176.441C126.46 192.009 132.036 204.629 138.914 204.629Z" fill="#DBDBDB"/>
<path d="M127.428 176.954C127.556 191.305 132.8 202.709 139.141 202.423C145.482 202.138 150.523 190.272 150.394 175.922C150.266 161.571 145.021 150.167 138.68 150.452C132.339 150.738 127.299 162.604 127.428 176.954Z" fill="#A6A6A6"/>
<path d="M137.082 170.007L140.687 169.843C139.415 165.917 143.499 151.847 143.499 151.847L141.591 150.493C140.372 155.452 139.754 156.91 138.715 156.963C137.677 157.015 137.035 155.604 135.729 150.756L133.868 152.302C133.868 152.302 138.249 165.97 137.082 170.007Z" fill="#DBDBDB"/>
<path d="M140.961 170.321L142.128 178.033C143.394 174.131 150.581 178.646 150.581 178.646V174.119C148.119 173.028 147.314 172.147 146.976 169.931C146.637 167.714 147.028 165.888 148.656 161.577L147.436 158.001C147.436 158.001 143.026 171.622 140.961 170.321Z" fill="#DBDBDB"/>
<path d="M142.04 178.844L139.165 183.803C141.195 185.314 141.498 202.173 141.498 202.173L143.394 200.726C143.096 195.096 143.213 193.09 144.041 191.672C144.87 190.255 145.756 190.535 148.072 192.711L149.198 188.983C149.198 188.983 142.128 183.68 142.04 178.844Z" fill="#DBDBDB"/>
<path d="M138.791 183.803L135.828 179.136C135.828 183.978 128.828 189.881 128.828 189.881L130.023 193.516C132.298 191.124 133.179 190.762 134.031 192.104C134.883 193.446 135.034 195.441 134.836 201.105L136.755 202.371C136.755 202.371 136.784 185.483 138.791 183.803Z" fill="#DBDBDB"/>
<path d="M135.705 178.325L136.755 170.514C134.749 171.996 130.082 158.783 130.082 158.783L128.915 162.475C130.624 166.629 131.05 168.414 130.747 170.642C130.443 172.871 129.656 173.839 127.218 175.163L127.276 179.679C127.276 179.679 134.375 174.533 135.705 178.325Z" fill="#DBDBDB"/>
<path d="M135.577 176.406C135.612 180.571 137.134 183.884 138.978 183.803C140.821 183.721 142.28 180.273 142.245 176.108C142.21 171.943 140.681 168.636 138.832 168.717C136.983 168.799 135.542 172.241 135.577 176.406Z" fill="#DBDBDB"/>
<path d="M336.525 168.093C336.718 189.403 329.233 207.026 319.812 207.458C319.585 207.47 319.357 207.47 319.129 207.458H295.929V130.263H319.129C328.551 129.837 336.338 146.772 336.525 168.093Z" fill="#263238"/>
<path d="M336.525 168.093C336.718 189.403 329.233 207.026 319.812 207.458C319.585 207.47 319.357 207.47 319.129 207.458H295.929V130.263H319.129C328.551 129.837 336.338 146.772 336.525 168.093Z" fill="black"/>
<path d="M295.591 207.458C305.011 207.458 312.648 190.176 312.648 168.857C312.648 147.539 305.011 130.257 295.591 130.257C286.17 130.257 278.534 147.539 278.534 168.857C278.534 190.176 286.17 207.458 295.591 207.458Z" fill="#263238"/>
<path d="M281.38 169.651C281.538 187.408 287.996 201.21 295.848 200.86C303.699 200.51 309.959 186.124 309.801 168.367C309.644 150.61 303.157 136.499 295.311 136.866C287.465 137.234 281.223 151.893 281.38 169.651Z" fill="#37474F"/>
<path d="M295.591 197.045C302.47 197.045 308.046 184.425 308.046 168.857C308.046 153.29 302.47 140.67 295.591 140.67C288.713 140.67 283.136 153.29 283.136 168.857C283.136 184.425 288.713 197.045 295.591 197.045Z" fill="#DBDBDB"/>
<path d="M295.591 194.846C301.934 194.846 307.077 183.21 307.077 168.857C307.077 154.504 301.934 142.869 295.591 142.869C289.247 142.869 284.104 154.504 284.104 168.857C284.104 183.21 289.247 194.846 295.591 194.846Z" fill="#A6A6A6"/>
<path d="M293.73 162.423L297.341 162.26C296.087 158.334 300.206 144.263 300.206 144.263L298.298 142.91C297.079 147.868 296.46 149.327 295.422 149.379C294.384 149.432 293.742 148.02 292.429 143.172L290.551 144.718C290.551 144.718 294.915 158.386 293.73 162.423Z" fill="#DBDBDB"/>
<path d="M297.644 162.738L298.811 170.45C300.071 166.547 307.258 171.062 307.258 171.062V166.536C304.796 165.445 303.985 164.564 303.647 162.347C303.308 160.13 303.699 158.305 305.333 153.994L304.107 150.418C304.107 150.418 299.703 164.039 297.644 162.738Z" fill="#DBDBDB"/>
<path d="M298.718 171.261L295.842 176.219C297.878 177.73 298.175 194.589 298.175 194.589L300.071 193.142C299.768 187.513 299.89 185.506 300.719 184.089C301.547 182.671 302.434 182.951 304.75 185.127L305.876 181.399C305.876 181.399 298.811 176.097 298.718 171.261Z" fill="#DBDBDB"/>
<path d="M295.468 176.219L292.511 171.552C292.511 176.394 285.51 182.298 285.51 182.298L286.677 185.932C288.946 183.54 289.827 183.179 290.679 184.52C291.531 185.862 291.688 187.857 291.49 193.521L293.403 194.787C293.403 194.787 293.467 177.899 295.468 176.219Z" fill="#DBDBDB"/>
<path d="M292.388 170.741L293.42 162.93C291.384 164.412 286.747 151.199 286.747 151.199L285.58 154.892C287.289 159.045 287.709 160.83 287.412 163.059C287.114 165.287 286.321 166.255 283.877 167.58L283.935 172.095C283.935 172.095 291.087 166.95 292.388 170.741Z" fill="#DBDBDB"/>
<path d="M292.254 168.822C292.295 172.987 293.818 176.301 295.655 176.219C297.493 176.137 298.963 172.69 298.922 168.525C298.881 164.36 297.364 161.046 295.521 161.134C293.678 161.221 292.219 164.657 292.254 168.822Z" fill="#DBDBDB"/>
<path d="M344.068 143.079C343.683 140.845 336.309 131.278 336.309 131.278C335.3 127.318 333.374 123.651 330.686 120.573C326.322 115.726 314.002 111.07 314.002 111.07C314.002 111.07 309.638 106.8 300.614 104.572C291.589 102.343 251.443 98.1549 251.443 98.1549C236.112 84.7728 207.791 69.7398 206.338 69.5706C204.885 69.4015 192.373 66.0705 159.781 65.8839C127.189 65.6972 103.522 68.9931 102.945 69.279C102.367 69.5648 96.5276 74.1325 96.6385 74.5291C96.7493 74.9258 106.433 106.8 106.433 106.8L43.1917 102.244C43.1917 102.244 38.729 102.53 38.1515 102.629C37.574 102.728 36.6931 104.117 36.6931 104.117C26.0877 105.925 14.1932 115.883 12.6414 118.082C11.0897 120.282 8.3713 132.31 8.11462 132.958C7.85795 133.605 6.17206 141.125 5.91538 142.916C5.65871 144.707 9.53801 167.469 9.91135 168.134C10.2847 168.799 14.6948 171.634 14.6948 171.634C13.6623 166.075 11.8539 136.201 19.7409 136.05C32.6738 135.84 36.5531 182.864 36.5531 182.864L121.262 193.364C117.511 181.726 113.632 131.569 133.028 131.569C152.425 131.569 161.356 194.525 162.26 194.659C163.164 194.793 187.607 197.5 191.614 197.243C195.622 196.987 338.141 183.826 339.109 183.535C340.078 183.243 341.728 179.556 341.927 178.868C342.125 178.179 341.536 174.504 341.536 174.504C341.536 174.504 344.459 145.302 344.068 143.079ZM249.179 98.1608C248.404 98.2891 119.593 102.04 117.779 102.139C115.965 102.238 104.549 70.2648 105.266 69.9673C106.205 69.5823 126.115 66.8756 154.77 66.6072C179.27 66.3797 205.726 69.524 206.595 70.0023C227.286 81.5002 249.955 98.05 249.179 98.1666V98.1608Z" fill="#FFD415"/>
<path d="M344.067 143.079C343.682 140.845 336.309 131.278 336.309 131.278C335.3 127.318 333.373 123.651 330.685 120.573C326.322 115.725 314.001 111.07 314.001 111.07C314.001 111.07 309.638 106.8 300.613 104.572C294.004 102.933 270.681 100.255 258.688 98.9424C254.336 98.4641 251.419 98.1666 251.419 98.1666C236.089 84.7844 207.767 69.7514 206.314 69.5822C204.862 69.4131 192.349 66.0821 159.757 65.8955C127.165 65.7088 103.498 69.0047 102.921 69.2906C102.565 69.4714 100.272 71.2273 98.5514 72.6682C97.4431 73.5899 96.5739 74.3774 96.6147 74.5291C96.7081 74.9199 106.409 106.829 106.409 106.829L43.1679 102.273C43.1679 102.273 38.7052 102.559 38.1277 102.658C37.5502 102.758 36.6693 104.146 36.6693 104.146C26.064 105.954 14.1694 115.912 12.6177 118.111C11.066 120.311 8.34755 132.339 8.09087 132.987C7.8342 133.634 6.14831 141.154 5.89163 142.945C5.63496 144.736 9.53759 167.469 9.91094 168.134C10.2843 168.799 14.6944 171.634 14.6944 171.634C13.6619 166.075 11.8535 136.201 19.7404 136.05C32.6734 135.84 36.5527 182.864 36.5527 182.864L121.261 193.364C117.51 181.726 113.631 131.569 133.028 131.569C152.424 131.569 161.355 194.525 162.259 194.659C163.164 194.793 187.606 197.5 191.614 197.243C195.621 196.987 338.14 183.826 339.109 183.534C340.077 183.243 341.728 179.556 341.926 178.868C342.125 178.179 341.536 174.504 341.536 174.504C341.536 174.504 344.458 145.301 344.067 143.079ZM117.779 102.133C116.525 102.203 110.662 86.8787 107.413 77.3583C105.972 73.1349 105.044 70.0548 105.266 69.9614C106.205 69.5764 126.115 66.8696 154.769 66.6013C179.27 66.3738 205.725 69.5181 206.594 69.9964C227.286 81.4885 249.955 98.0265 249.179 98.1549C249.027 98.1549 243.929 98.3474 235.762 98.5924C202.616 99.6308 119.237 102.063 117.779 102.133Z" fill="#FFD415"/>
<path d="M344.062 143.079C343.877 142.413 343.594 141.778 343.222 141.195C341.203 137.636 336.303 131.278 336.303 131.278C335.294 127.318 333.368 123.651 330.679 120.573C326.316 115.726 313.996 111.07 313.996 111.07C313.996 111.07 309.632 106.8 300.608 104.572C293.998 102.933 270.676 100.255 258.682 98.9425C254.336 98.4642 251.419 98.1667 251.419 98.1667C236.089 84.7846 207.767 69.7515 206.314 69.5824C204.862 69.4132 192.349 66.0822 159.757 65.8956C127.165 65.7089 103.498 69.0048 102.921 69.2907C102.565 69.4715 100.272 71.2274 98.5515 72.6683C97.4432 73.59 96.574 74.3775 96.6148 74.5292C96.7082 74.92 106.409 106.829 106.409 106.829L43.1622 102.244C43.1622 102.244 38.6995 102.53 38.122 102.629C37.5445 102.728 36.6636 104.117 36.6636 104.117C26.0582 105.925 14.1637 115.883 12.612 118.082C12.0811 118.841 11.4103 120.754 10.7452 122.965C9.48519 127.2 8.25431 132.532 8.08514 132.958C7.82846 133.605 6.14257 141.125 5.8859 142.916C5.62922 144.707 9.53185 167.469 9.91103 168.134C10.2902 168.799 14.6945 171.634 14.6945 171.634C13.8837 167.271 12.5945 147.938 15.8904 139.754C16.7946 137.508 18.043 136.102 19.7405 136.073C24.9907 135.985 28.73 143.657 31.3376 152.792C35.1761 166.209 36.5528 182.887 36.5528 182.887L121.261 193.387C118.759 185.617 116.198 160.673 120.538 144.969C122.702 137.146 126.582 131.61 133.028 131.61C139.911 131.61 145.476 139.538 149.834 149.776C157.756 168.379 161.676 194.612 162.26 194.694C163.164 194.822 187.606 197.535 191.614 197.278C195.622 197.022 338.141 183.861 339.109 183.57C340.077 183.278 341.728 179.591 341.927 178.903C342.125 178.214 341.536 174.539 341.536 174.539C341.536 174.539 344.452 145.302 344.062 143.079ZM249.173 98.1608C249.022 98.1608 243.923 98.3533 235.756 98.5984C202.587 99.6251 119.208 102.058 117.75 102.139C116.495 102.209 110.633 86.8846 107.384 77.3643C105.943 73.1408 105.015 70.0607 105.237 69.9674C106.176 69.5824 126.086 66.8756 154.74 66.6073C179.241 66.3798 205.696 69.524 206.565 70.0024C227.28 81.5003 249.949 98.05 249.173 98.1667V98.1608Z" fill="#FFD415"/>
<path d="M232.816 134.247C232.612 132.725 189.263 125.497 180.437 125.03C171.611 124.563 160.358 124.447 158.806 124.645C157.254 124.843 150.814 127.749 151.368 128.04C151.922 128.332 165.795 137.642 171.517 139.194C177.24 140.746 219.136 141.527 221.686 141.329C224.235 141.131 233.009 135.7 232.816 134.247Z" fill="white"/>
<path d="M158.888 128.933C159.389 129.207 171.978 137.893 177.176 139.34C181.732 140.611 211.594 141.323 220.344 141.358C212.725 141.393 176.767 140.623 171.494 139.194C165.771 137.642 151.899 128.332 151.345 128.04C150.791 127.748 157.231 124.837 158.783 124.645C160.334 124.452 171.587 124.546 180.413 125.03C189.239 125.514 232.588 132.724 232.793 134.247C232.8 134.373 232.769 134.499 232.705 134.609C230.646 132.975 193.037 126.57 185.249 126.127C177.24 125.677 167.025 125.584 165.62 125.765C164.214 125.946 158.386 128.658 158.888 128.933Z" fill="#EBEBEB"/>
<g opacity="0.1">
<path d="M15.9023 139.742C12.6064 147.909 13.8956 167.259 14.7356 171.622C14.7356 171.622 10.343 168.782 9.95212 168.122C9.56127 167.463 5.65864 144.718 5.91531 142.916C6.17199 141.113 7.85788 133.582 8.11455 132.958C8.28373 132.532 9.5146 127.2 10.7746 122.965C12.0179 128.689 13.7329 134.301 15.9023 139.742Z" fill="black"/>
<path d="M121.273 193.352L36.5645 182.852C36.5645 182.852 35.1878 166.197 31.3494 152.757C31.7015 152.481 32.0085 152.153 32.2594 151.783C32.2594 151.783 38.1513 131.12 39.2188 130.152C40.2863 129.184 108.667 136.656 109.443 136.604C110.219 136.551 120.235 144.642 120.527 144.893C116.21 160.638 118.771 185.582 121.273 193.352Z" fill="black"/>
<path d="M341.548 174.504C341.548 174.504 342.131 178.191 341.938 178.868C341.746 179.544 340.095 183.231 339.121 183.535C338.147 183.838 195.616 196.987 191.626 197.243C187.636 197.5 163.176 194.787 162.271 194.659C161.688 194.572 157.768 168.338 149.846 149.741C152.85 150.202 154.956 150.493 155.318 150.47C156.87 150.371 173.559 155.994 173.559 155.994C173.559 155.994 174.545 151.724 177.345 150.948C180.145 150.173 233.785 153.183 237.571 152.698C241.357 152.214 249.197 136.114 249.197 136.114L312.088 133.378C312.088 133.378 318.686 144.724 320.92 146.083C323.154 147.442 331.555 144.24 335.889 142.787C339.64 141.521 342.131 140.967 343.257 141.195C343.629 141.778 343.912 142.413 344.097 143.079C344.459 145.302 341.548 174.504 341.548 174.504Z" fill="black"/>
</g>
<path d="M314.194 129.784C314.433 130.671 319.334 135.991 320.302 136.09C321.27 136.189 333.206 133.471 333.882 132.94C334.905 132.086 335.593 130.898 335.825 129.586C336.117 127.941 334.466 121.641 332.908 120.281C331.351 118.922 327.582 117.948 327.582 117.948C327.582 117.948 323.598 122.224 320.979 124.067C318.359 125.911 314.048 129.253 314.194 129.784Z" fill="white"/>
<path d="M335.824 129.586C335.592 130.898 334.904 132.086 333.882 132.94C333.205 133.471 321.276 136.189 320.301 136.09C320.233 136.078 320.166 136.056 320.103 136.026C322.541 135.659 330.691 133.757 331.187 133.343C332.069 132.596 332.662 131.564 332.861 130.426C333.112 128.991 331.694 123.501 330.347 122.317C328.999 121.133 325.744 120.281 325.744 120.281C325.744 120.281 322.302 124.009 320.039 125.613C318.143 126.955 315.209 129.224 314.392 130.198C314.3 130.071 314.225 129.932 314.17 129.784C314.025 129.253 318.341 125.905 320.961 124.062C323.58 122.218 327.564 117.942 327.564 117.942C327.564 117.942 331.338 118.922 332.89 120.276C334.442 121.629 336.116 127.941 335.824 129.586Z" fill="#EBEBEB"/>
<path d="M240.166 134.545C241.73 133.203 309.399 129.977 311.639 130.496C312.012 130.584 316.65 137.992 316.23 139.159C313.062 147.956 308.541 161.157 307.66 161.88C306.779 162.604 260.105 165.311 258.075 165.311C255.683 165.311 241.158 150.243 234.694 143.301C233.849 142.385 238.375 136.09 240.166 134.545Z" fill="#263238"/>
<path opacity="0.2" d="M316.23 139.165C313.062 147.956 308.541 161.157 307.66 161.88C306.706 162.123 305.728 162.266 304.744 162.306C306.395 158.538 309.93 148.306 312.543 141.02C312.969 139.853 308.331 132.444 307.952 132.357C305.94 131.884 251.075 134.445 238.854 135.945C239.26 135.449 239.7 134.983 240.172 134.55C241.73 133.203 309.405 129.977 311.645 130.496C312.012 130.584 316.65 137.992 316.23 139.165Z" fill="black"/>
<path d="M313.552 133.273L309.521 133.506L308.938 133.541L299.336 134.124L298.752 134.159L258.653 136.493L258.034 136.528L245.247 137.269L244.623 137.304L237.5 137.718C237.646 137.52 237.792 137.321 237.944 137.134L244.886 136.732L245.504 136.697L258.291 135.956L258.909 135.921L298.502 133.629L299.085 133.594L308.687 133.01L309.27 132.975L313.225 132.748L313.552 133.273Z" fill="#37474F"/>
<path d="M316.224 138.669L312.024 138.914L311.441 138.949L301.833 139.503L301.25 139.538L256.086 142.157L255.462 142.192L242.669 142.933L242.045 142.968L234.782 143.394L234.695 143.301C234.649 143.235 234.617 143.161 234.601 143.083C234.585 143.004 234.585 142.924 234.601 142.846L242.302 142.402L242.926 142.367L255.707 141.632L256.331 141.591L301.005 139.001L301.588 138.966L311.19 138.412L311.773 138.377L316.061 138.126C316.128 138.303 316.182 138.484 316.224 138.669Z" fill="#37474F"/>
<path d="M314.422 144.135L314.504 144.304H314.358L313.914 144.333L304.307 144.887L303.723 144.922L253.485 147.839L252.867 147.874L240.079 148.615H239.735H239.461L239.554 148.411C239.449 148.3 239.339 148.189 239.239 148.078L239.712 148.049L240.336 148.014L253.123 147.273L253.742 147.238L303.478 144.356L304.062 144.321L313.669 143.738L314.253 143.703H314.562L314.422 144.135Z" fill="#37474F"/>
<path d="M312.566 149.438L312.368 150.021L306.832 150.342L306.249 150.377L250.941 153.585L250.323 153.62L244.891 153.935C244.716 153.766 244.547 153.591 244.372 153.416L250.573 153.055L251.192 153.02L306.027 149.846L306.61 149.811L312.566 149.438Z" fill="#37474F"/>
<path d="M310.513 155.108L310.303 155.691L309.335 155.749L308.751 155.784L250.253 159.156L249.699 158.631L308.489 155.218L309.072 155.183L310.513 155.108Z" fill="#37474F"/>
<path d="M260.333 132.695L258.892 135.886L258.635 136.469L256.302 141.597L256.045 142.181L253.712 147.314L253.455 147.897L251.122 153.037L250.871 153.62L248.899 157.995L248.479 157.593L250.229 153.655L250.48 153.072L252.814 147.932L253.07 147.349L255.404 142.215L255.66 141.632L257.994 136.499L258.25 135.915L259.685 132.724L260.333 132.695Z" fill="#37474F"/>
<path d="M246.84 133.634L245.487 136.639L245.23 137.222L242.897 142.35L242.64 142.933L240.306 148.067L240.05 148.65L239.933 148.907L239.706 148.667H239.431L239.525 148.463L239.682 148.102L242.016 142.968L242.272 142.385L244.606 137.251L244.868 136.668L246.21 133.687L246.84 133.634Z" fill="#37474F"/>
<path d="M309.86 156.869C309.761 157.114 309.673 157.354 309.58 157.587L308.74 155.767L308.489 155.224L306.255 150.353L306.01 149.823L303.752 144.946L303.507 144.409L301.255 139.538L301.005 139.001L298.753 134.13L298.502 133.594L297.219 130.817H297.802L299.08 133.582L299.33 134.119L301.582 138.99L301.827 139.526L304.079 144.397L304.33 144.934L306.581 149.811L306.832 150.342L309.084 155.213L309.335 155.755L309.86 156.869Z" fill="#37474F"/>
<path d="M314.527 144.321H314.381C314.317 144.508 314.252 144.7 314.182 144.905L313.937 144.368L313.687 143.831L311.435 138.96L311.184 138.424L308.932 133.553L308.681 133.01L307.515 130.484H308.098L309.265 132.987L309.516 133.529L311.767 138.4L312.018 138.937L314.27 143.808L314.439 144.175L314.527 144.321Z" fill="#37474F"/>
<path d="M308.273 160.789C308.174 161.011 308.08 161.203 307.999 161.373L256.232 164.371C256.016 164.219 255.788 164.044 255.543 163.858L308.273 160.789Z" fill="#37474F"/>
<path d="M178.302 153.322C176.114 153.375 174.801 161.729 174.037 172.141C173.273 182.554 173.314 187.594 175 188.37C176.686 189.146 183.091 189.274 184.123 189.274C185.156 189.274 220.98 182.274 221.89 181.195C222.8 180.116 218.39 163.473 217.036 162.049C215.683 160.626 181.02 153.258 178.302 153.322Z" fill="#263238"/>
<path d="M221.89 181.195C221.627 181.516 218.39 182.362 213.933 183.336C203.071 185.769 184.859 189.28 184.124 189.28C183.091 189.28 176.692 189.146 175.006 188.37C173.32 187.595 173.256 182.537 174.038 172.142C174.819 161.746 176.12 153.375 178.308 153.328C180.25 153.282 198.048 156.969 208.835 159.594C213.326 160.702 216.605 161.635 217.001 162.05C218.396 163.479 222.794 180.099 221.89 181.195Z" fill="#263238"/>
<path opacity="0.2" d="M221.89 181.195C221.628 181.516 218.39 182.362 213.933 183.336C218.909 179.947 217.883 176.248 216.815 171.266C215.748 166.285 211.39 160.264 208.876 159.599C213.367 160.708 216.646 161.641 217.043 162.055C218.396 163.479 222.794 180.098 221.89 181.195Z" fill="black"/>
<path d="M213.933 160.924H185.675V159.757H209.5C211.209 160.183 212.72 160.579 213.933 160.924Z" fill="#37474F"/>
<path d="M219.376 168.326H186.708V167.159H219.032C219.143 167.539 219.259 167.929 219.376 168.326Z" fill="#37474F"/>
<path d="M221.213 175.473H186.702V174.306H220.945C221.038 174.703 221.126 175.093 221.213 175.473Z" fill="#37474F"/>
<path d="M220.962 181.586C220.034 181.883 218.471 182.28 216.499 182.753H184.666V181.586H220.962Z" fill="#37474F"/>
<path d="M187.18 175.134C187.14 175.432 182.613 186.644 181.574 189.211C179.241 189.111 176.114 188.878 175.006 188.37C173.32 187.595 173.256 182.537 174.038 172.142C174.819 161.746 176.12 153.375 178.308 153.328C180.392 153.536 182.462 153.864 184.509 154.309C185.139 156.782 187.624 166.594 187.665 167.142C187.705 167.691 187.25 174.796 187.18 175.134Z" fill="#C7C7C7"/>
<path d="M185.95 174.545C185.95 174.796 182.589 184.217 181.831 186.37C180.151 186.282 177.876 186.072 177.077 185.64C175.858 184.981 175.84 180.734 176.447 171.972C177.053 163.21 178.045 156.187 179.626 156.158C181.138 156.342 182.637 156.624 184.112 157.004C184.555 159.092 186.311 167.358 186.34 167.836C186.37 168.315 185.985 174.259 185.95 174.545Z" fill="#A6A6A6"/>
<path opacity="0.1" d="M181.703 186.37C180.046 186.27 177.858 186.06 177.077 185.64C175.863 184.981 175.84 180.74 176.453 171.978C177.065 163.216 178.045 156.187 179.626 156.158C180.306 156.213 180.981 156.321 181.644 156.479C180.25 157.406 179.363 164.062 178.798 172.177C178.214 180.927 178.214 185.185 179.428 185.845C180.155 186.134 180.922 186.311 181.703 186.37Z" fill="black"/>
<path d="M323.895 172.946C324.689 173.903 339.412 176.248 340.48 175.373C341.548 174.498 344.068 145.5 343.583 144.24C343.099 142.98 329.91 153.357 329.134 154.635C328.358 155.913 322.921 171.786 323.895 172.946Z" fill="#263238"/>
<path opacity="0.2" d="M343.472 149.152C343.472 149.525 343.426 149.916 343.397 150.318C343.274 152.173 343.105 154.314 342.918 156.554L342.813 157.721C342.638 159.71 342.446 161.752 342.23 163.701C342.183 164.091 342.148 164.482 342.107 164.867C341.862 167.142 341.612 169.254 341.372 170.981C341.32 171.389 341.262 171.78 341.209 172.147C340.929 174.003 340.667 175.21 340.462 175.379C340.013 175.747 337.126 175.543 333.888 175.117C333.888 175.117 336.986 174.533 337.435 174.417C337.884 174.3 339.313 164.879 339.961 158.188C340.608 151.497 339.506 146.742 338.794 146.812C341.326 145.027 343.408 143.779 343.595 144.263C343.7 144.543 343.642 146.433 343.472 149.152Z" fill="black"/>
<path d="M343.472 149.152C343.472 149.525 343.426 149.916 343.396 150.319H334.063C334.553 149.934 335.06 149.537 335.574 149.152H343.472Z" fill="#37474F"/>
<path d="M342.918 156.554L342.813 157.721H327.897C328.049 157.301 328.195 156.91 328.329 156.554H342.918Z" fill="#37474F"/>
<path d="M342.247 163.701C342.2 164.092 342.165 164.482 342.125 164.867H325.54C325.656 164.482 325.773 164.092 325.896 163.701H342.247Z" fill="#37474F"/>
<path d="M341.39 170.969C341.337 171.377 341.279 171.768 341.226 172.136H323.79C323.817 171.744 323.87 171.354 323.948 170.969H341.39Z" fill="#37474F"/>
<g opacity="0.1">
<path d="M37.5679 104.566C58.4927 106.077 87.7362 108.65 108.381 109.449L108.119 109.641L108.801 107.074C108.929 107.775 103.603 89.7897 103.633 89.9531L98.5341 72.6625L103.953 89.8831C103.953 89.9706 109.309 107.08 109.314 107.162V107.232L108.644 109.805L108.591 110.003H108.381C84.7203 109.105 61.1295 106.882 37.5854 104.601L37.5679 104.566Z" fill="black"/>
<path d="M117.779 102.133L117.266 105.826C117.155 105.604 120.077 110.452 120.042 110.4C124.336 110.855 129.959 111.817 134.685 112.505C142.052 113.672 149.42 114.786 156.747 116.204C164.045 117.884 170.782 121.384 177.333 124.884C170.666 121.658 163.916 118.327 156.636 116.717C154.204 116.251 151.748 115.842 149.303 115.434C149.134 115.346 119.844 110.732 119.774 110.557C119.774 110.557 117.12 105.861 117.114 105.838C117.108 105.814 117.767 102.163 117.767 102.145L117.779 102.133Z" fill="black"/>
<path d="M151.369 128.04C149.618 129.347 147.822 130.496 146.019 131.657C145.574 131.899 145.167 132.206 144.812 132.567C143.878 133.845 143.12 135.285 142.245 136.65C142.916 134.982 143.499 133.255 144.666 131.884C146.775 130.406 149.012 129.12 151.351 128.04H151.369Z" fill="black"/>
<path d="M208.356 128.997C218.664 127.107 233.33 124.418 243.602 122.708C244.784 122.501 245.979 122.388 247.178 122.37L250.76 122.218C263.664 121.635 287.856 120.719 300.847 120.27C303.18 120.06 305.659 120.538 307.987 120.853C312.701 121.582 317.408 122.37 322.116 123.187C317.397 122.481 312.671 121.781 307.946 121.145C305.613 120.847 303.192 120.392 300.847 120.632C286.123 121.314 261.856 122.335 247.219 122.883C246.032 122.892 244.848 122.998 243.678 123.198C238.941 123.962 213.606 128.128 208.356 128.991V128.997Z" fill="black"/>
<path d="M108.37 109.717L106.252 113.736C105.774 114.751 105.115 115.702 104.945 116.828C104.053 122.3 103.335 128.174 102.612 133.687C102.522 134.233 102.471 134.784 102.46 135.338C102.717 138.529 103.131 141.72 103.487 144.91L105.517 162.994C105.517 164.564 105.336 166.04 105.231 167.562C105.021 170.17 104.648 174.026 104.508 176.61C104.432 177.992 104.735 179.748 104.805 181.131L104.525 178.873C104.158 176.627 104.496 174.329 104.578 172.066C104.718 169.382 105.045 165.649 105.068 163.029C104.327 156.029 102.256 141.615 101.953 134.772C102.688 129.148 103.551 123.507 104.508 117.919C104.736 116.405 105.293 114.959 106.141 113.684C106.87 112.359 107.629 111.047 108.393 109.74L108.37 109.717Z" fill="black"/>
<path d="M119.249 182.875C101.019 180.915 82.3697 178.908 64.2332 176.213C63.502 176.127 62.7858 175.943 62.104 175.665C58.9714 173.868 56.5738 171.091 54.1821 168.46C54.8063 168.711 44.0259 166.372 44.1484 166.43L33.998 164.278L44.2009 166.168L54.3862 168.11H54.4562L54.5087 168.163C56.8947 170.701 59.2864 173.413 62.3315 175.163C62.6373 175.307 62.9611 175.409 63.294 175.467C80.3688 178.027 102.116 180.483 119.249 182.84V182.875Z" fill="black"/>
<path d="M54.345 168.321C53.7208 165.707 53.1433 163.07 52.595 160.445C52.0466 157.82 51.7549 155.16 51.1016 152.529C50.1157 147.798 47.0181 134.859 46.3297 130.298C46.3042 130.103 46.3161 129.905 46.3647 129.714C47.367 126.136 48.5587 122.613 49.9349 119.161C52.3324 115.078 55.2434 111.362 57.9443 107.494C58.2824 106.719 58.7113 105.987 59.2218 105.313C60.4803 104.691 61.7714 104.138 63.0895 103.656C61.8236 104.239 60.5111 104.747 59.3093 105.435C58.8411 106.119 58.4498 106.853 58.1426 107.623C56.0426 110.854 52.2216 116.058 50.4016 119.36C49.1765 122.469 48.144 125.683 47.1814 128.874C47.0188 129.322 46.9283 129.792 46.9131 130.268C48.249 137.654 50.0865 145.062 51.5274 152.436C52.1108 155.043 52.3558 157.739 52.8633 160.393C53.3708 163.047 53.8608 165.678 54.3684 168.315L54.345 168.321Z" fill="black"/>
<path d="M17.6932 113.515C22.0451 112.733 26.4435 112.103 30.8012 111.496C31.8336 111.159 32.8447 110.76 33.8288 110.3C35.4622 109.577 37.0897 108.819 38.6823 108.014C40.2544 106.626 41.7063 105.108 43.0224 103.475C43.3953 102.986 43.8739 102.587 44.4225 102.308C43.9144 102.631 43.4777 103.054 43.1391 103.551C41.9795 105.177 40.69 106.707 39.2831 108.124C38.5864 108.613 37.8417 109.029 37.0606 109.367C35.013 110.318 33.0938 111.409 30.9004 112.033C26.5077 112.616 22.1501 113.112 17.7107 113.497L17.6932 113.515Z" fill="black"/>
<path d="M7.81687 134.037C9.11385 135.35 10.3313 136.738 11.4628 138.196C12.5945 139.649 13.5571 141.183 15.0971 142.28C13.3471 141.591 12.1803 140.016 11.0136 138.564C9.85651 137.118 8.78706 135.605 7.81104 134.031L7.81687 134.037Z" fill="black"/>
<path d="M257.492 188.009C253.409 188.009 250.328 187.729 249.051 186.988C245.323 184.83 227.584 154.18 227.391 152.57C227.198 150.96 229.065 145.453 229.141 145.22L229.689 145.412C229.03 147.332 227.823 151.287 227.939 152.506C228.132 154.017 245.918 184.532 249.313 186.492C252.475 188.318 268.284 187.105 282.232 186.031L285.732 185.763C300.835 184.596 313.319 182.694 314.486 182.379C315.524 181.709 321.363 166.016 323.481 158.619C325.628 151.118 326.205 146.62 326.205 146.287C326.205 145.453 324.169 142.951 322.886 141.568L323.312 141.171C323.668 141.551 326.812 144.952 326.812 146.287C326.812 146.871 326.094 151.695 324.064 158.783C322.314 164.984 316.02 182.572 314.666 182.939C313.5 183.26 300.94 185.197 285.802 186.346L282.302 186.615C273.266 187.303 264.037 188.009 257.492 188.009Z" fill="black"/>
</g>
<path d="M101.69 91.1836C101.241 91.3761 98.0442 102.821 98.0442 102.821C98.0442 102.821 89.2939 104.519 88.6813 104.572C87.9971 104.744 87.3424 105.017 86.7388 105.382L106.433 106.8L101.69 91.1836Z" fill="#263238"/>
<path d="M99.3505 103.673L96.2004 102.868C96.2004 102.868 96.1479 94.5263 96.2004 94.3338C96.2529 94.1413 90.1861 91.7146 88.5818 91.5221C86.9776 91.3296 71.7054 92.6363 69.477 94.188C67.2486 95.7397 70.6437 104.327 71.6588 105.149C72.6738 105.972 87.4676 106.456 88.1968 106.456C88.926 106.456 99.3505 105.534 99.3505 105.534V103.673Z" fill="#FFD415"/>
<path opacity="0.2" d="M69.9961 97.7697C78.0473 97.2389 86.1248 97.2389 94.1761 97.7697C86.1518 98.8431 78.0204 98.8431 69.9961 97.7697Z" fill="black"/>
<path opacity="0.1" d="M99.3506 103.673V105.54C99.3506 105.54 88.9261 106.462 88.1969 106.462C87.4677 106.462 72.6797 105.978 71.6588 105.149C70.8888 104.525 68.7421 99.3975 68.7421 96.3057V96.2357C69.2146 97.5016 77.2532 101.754 83.5009 102.53C89.7486 103.306 96.1888 98.995 96.1888 98.995C96.1888 100.99 96.1888 102.874 96.1888 102.874L99.3506 103.673Z" fill="black"/>
<path opacity="0.4" d="M96.2007 94.334C93.2431 94.334 75.1534 94.9174 70.2007 93.844C73.9458 92.4498 87.1179 91.3472 88.588 91.5106C90.1805 91.7206 96.2007 94.124 96.2007 94.334Z" fill="white"/>
<path d="M249.179 98.1665C249.028 98.1665 243.929 98.359 235.762 98.604C231.183 95.6289 201.344 76.3024 200.399 76.1799C199.454 76.0574 178.932 73.724 161.985 74.2432C147.699 74.6807 116.98 76.6758 107.389 77.37C105.948 73.1465 105.021 70.0664 105.243 69.9731C106.182 69.5881 126.092 66.8813 154.746 66.613C179.247 66.3854 205.702 69.5297 206.571 70.0081C227.286 81.5001 249.955 98.0499 249.179 98.1665Z" fill="#FFD415"/>
<path opacity="0.4" d="M249.179 98.1665C249.028 98.1665 243.929 98.359 235.762 98.604C231.183 95.6289 201.344 76.3024 200.399 76.1799C199.454 76.0574 178.932 73.724 161.985 74.2432C147.699 74.6807 116.98 76.6758 107.389 77.37C105.948 73.1465 105.021 70.0664 105.243 69.9731C106.182 69.5881 126.092 66.8813 154.746 66.613C179.247 66.3854 205.702 69.5297 206.571 70.0081C227.286 81.5001 249.955 98.0499 249.179 98.1665Z" fill="black"/>
<path d="M234.951 165.806C234.951 165.806 246.297 185.559 249.792 187.11C253.286 188.662 311.569 183.132 314.188 182.163C316.807 181.195 322.116 159.08 322.116 159.08C322.116 159.08 314.573 162.277 314.188 162.668C313.803 163.059 311.855 165.649 311.475 165.806C311.096 165.964 254.832 170.327 254.056 170.234C253.28 170.141 251.052 166.932 250.661 166.839C250.27 166.745 236.112 165.649 234.951 165.806Z" fill="#263238"/>
<g opacity="0.2">
<path d="M310.414 165.917C309.837 166.719 309.185 167.463 308.465 168.14C308.074 168.303 251.816 172.667 251.04 172.567C250.264 172.468 248.036 169.271 247.645 169.172C247.388 169.108 240.983 168.589 236.415 168.315C235.505 166.781 234.945 165.806 234.945 165.806C236.112 165.649 250.27 166.74 250.661 166.839C251.052 166.938 253.28 170.135 254.056 170.234C254.832 170.333 302.638 166.617 310.414 165.917Z" fill="black"/>
<path d="M322.116 159.08C322.116 159.08 316.813 181.195 314.188 182.163C313.69 182.299 313.184 182.399 312.671 182.461C315.413 176.791 319.088 161.414 319.088 161.414C319.088 161.414 315.39 162.983 313.039 164.056C313.546 163.432 314.007 162.843 314.206 162.668C314.573 162.283 322.116 159.08 322.116 159.08Z" fill="black"/>
</g>
<path d="M315.973 179.498C315.775 179.953 315.577 180.361 315.39 180.711L248.503 186.095C248.194 185.792 247.861 185.424 247.511 185.01L315.973 179.498Z" fill="#37474F"/>
<path d="M317.496 175.496C317.356 175.904 317.216 176.307 317.076 176.692L245.498 182.455C245.241 182.099 244.973 181.732 244.711 181.353L317.496 175.496Z" fill="#37474F"/>
<path d="M318.762 171.512C318.645 171.908 318.523 172.305 318.4 172.678L242.949 178.78C242.704 178.419 242.465 178.045 242.22 177.678L318.762 171.512Z" fill="#37474F"/>
<path d="M319.911 167.539C319.8 167.93 319.689 168.326 319.573 168.706L240.563 175.093C240.324 174.72 240.097 174.353 239.869 173.985L319.911 167.539Z" fill="#37474F"/>
<path d="M253.828 170.146L238.27 171.395C238.031 171.01 237.81 170.642 237.594 170.286L252.685 169.073C253.018 169.479 253.403 169.84 253.828 170.146Z" fill="#37474F"/>
<path d="M320.984 163.572L320.669 164.739L311.854 165.451C312.14 165.147 312.531 164.675 312.916 164.202L320.984 163.572Z" fill="#37474F"/>
<path d="M57.9808 116.62L58.2976 116.671C59.1958 116.815 59.9998 117.31 60.5329 118.048C61.0659 118.785 61.2843 119.704 61.1399 120.602L60.616 123.862C60.4714 124.761 59.9754 125.567 59.2369 126.101C58.4985 126.635 57.5781 126.854 56.6784 126.709L56.3674 126.659C55.4692 126.515 54.6651 126.019 54.1321 125.282C53.599 124.545 53.3807 123.626 53.525 122.728L54.0489 119.468C54.1197 119.023 54.2776 118.596 54.5136 118.211C54.7496 117.827 55.0591 117.493 55.4243 117.229C55.7895 116.964 56.2032 116.774 56.6419 116.67C57.0806 116.565 57.5356 116.548 57.9808 116.62Z" fill="#FFD415"/>
<path opacity="0.1" d="M57.9808 116.62L58.2976 116.671C59.1958 116.815 59.9998 117.31 60.5329 118.048C61.0659 118.785 61.2843 119.704 61.1399 120.602L60.616 123.862C60.4714 124.761 59.9754 125.567 59.2369 126.101C58.4985 126.635 57.5781 126.854 56.6784 126.709L56.3674 126.659C55.4692 126.515 54.6651 126.019 54.1321 125.282C53.599 124.545 53.3807 123.626 53.525 122.728L54.0489 119.468C54.1197 119.023 54.2776 118.596 54.5136 118.211C54.7496 117.827 55.0591 117.493 55.4243 117.229C55.7895 116.964 56.2032 116.774 56.6419 116.67C57.0806 116.565 57.5356 116.548 57.9808 116.62Z" fill="black"/>
<path d="M60.7217 120.47L53.1634 119.784C52.8425 119.755 52.5588 119.991 52.5296 120.312L52.3212 122.607C52.292 122.928 52.5285 123.211 52.8494 123.24L60.4077 123.927C60.7285 123.956 61.0123 123.72 61.0414 123.399L61.2499 121.104C61.279 120.783 61.0425 120.499 60.7217 120.47Z" fill="#FFD415"/>
<g opacity="0.2">
<path d="M60.7217 120.47L53.1634 119.784C52.8425 119.755 52.5588 119.991 52.5296 120.312L52.3212 122.607C52.292 122.928 52.5285 123.211 52.8494 123.24L60.4077 123.927C60.7285 123.956 61.0123 123.72 61.0414 123.399L61.2499 121.104C61.279 120.783 61.0425 120.499 60.7217 120.47Z" fill="white"/>
</g>
<path opacity="0.3" d="M249.173 98.1665C249.021 98.1665 243.923 98.359 235.756 98.604C202.586 99.6308 119.208 102.063 117.749 102.145C116.495 102.215 110.633 86.8903 107.383 77.37C105.942 73.1465 105.015 70.0664 105.237 69.9731C106.176 69.5881 126.086 66.8813 154.74 66.613C179.241 66.3854 205.696 69.5297 206.565 70.0081C227.28 81.5001 249.949 98.0499 249.173 98.1665Z" fill="#EBEBEB"/>
<path opacity="0.1" d="M249.173 98.1667C249.021 98.1667 243.923 98.3592 235.756 98.6042C202.586 99.6309 119.208 102.063 117.749 102.145C116.495 102.215 110.633 86.8905 107.383 77.3701C105.942 73.1467 105.015 70.0666 105.237 69.9732C105.592 69.8274 108.649 69.349 113.858 68.8065C151.946 85.0237 196.613 92.1406 212.445 90.1222C220.921 89.0489 221.697 83.5537 220.169 78.0643C236.077 87.9522 249.78 98.05 249.173 98.1667Z" fill="white"/>
<path opacity="0.1" d="M200.223 109.657C193.803 104.093 193.268 99.8489 193.803 98.4224L194.338 97.3523L198.083 95.7474H205.037L220.016 103.237L237.135 111.796L238.74 128.915L214.667 164.758L213.597 163.688L210.922 162.618L213.062 157.804L226.436 126.241L222.156 123.566L210.387 116.611C208.069 115.185 202.791 111.796 200.223 109.657Z" fill="black"/>
<path d="M251.518 88.1914C251.518 88.1914 251.518 108.889 251.489 108.906C249.885 113.882 248.573 118.275 248.1 120.614C248.097 120.62 248.096 120.626 248.096 120.632C248.096 120.638 248.097 120.644 248.1 120.649C247.929 121.184 247.885 121.751 247.972 122.306C247.972 122.306 247.972 122.335 247.972 122.347C249.138 123.828 288.538 137.811 290.078 137.835C291.618 137.858 291.828 133.477 290.714 131.715C289.6 129.954 276.918 117.849 276.918 117.849L277.011 94.2874L251.518 88.1914Z" fill="#CB867D"/>
<path d="M290.095 137.835C288.55 137.835 249.144 123.834 247.983 122.347C247.983 122.347 247.983 122.347 247.983 122.306C247.903 121.751 247.949 121.185 248.117 120.649C248.114 120.644 248.113 120.638 248.113 120.632C248.113 120.626 248.114 120.62 248.117 120.614C248.584 118.281 249.902 113.882 251.507 108.906V105.908L276.958 113.492V117.843C276.958 117.843 289.64 129.942 290.755 131.71C291.869 133.477 291.635 137.864 290.095 137.835Z" fill="#EBEBEB"/>
<path d="M290.125 137.794C288.573 137.747 249.08 123.012 247.931 121.495C247.487 120.912 251.466 108.976 251.489 108.906L277.355 117.003L277.186 117.435C277.186 117.435 289.78 129.837 290.866 131.634C291.951 133.431 291.671 137.852 290.125 137.794Z" fill="#FFC727"/>
<path opacity="0.3" d="M290.125 137.794C288.573 137.747 249.08 123.012 247.931 121.495C247.487 120.912 251.466 108.976 251.489 108.906L277.355 117.003L277.186 117.435C277.186 117.435 289.78 129.837 290.866 131.634C291.951 133.431 291.671 137.852 290.125 137.794Z" fill="black"/>
<path d="M279.297 118.31C276.859 116.84 273.504 116.047 270.803 117.143C270.698 117.19 270.763 117.336 270.856 117.342C273.662 117.467 276.447 117.893 279.163 118.613C279.198 118.614 279.233 118.603 279.262 118.584C279.292 118.565 279.315 118.538 279.329 118.506C279.344 118.473 279.348 118.438 279.342 118.403C279.337 118.368 279.321 118.336 279.297 118.31Z" fill="#263238"/>
<path d="M280.762 120.153C278.323 118.689 274.969 117.896 272.274 119.016C272.169 119.057 272.227 119.208 272.326 119.208C275.131 119.337 277.913 119.764 280.628 120.48C280.668 120.487 280.71 120.48 280.746 120.46C280.782 120.44 280.81 120.409 280.826 120.37C280.841 120.332 280.844 120.29 280.832 120.251C280.82 120.211 280.796 120.177 280.762 120.153Z" fill="#263238"/>
<path d="M282.226 121.997C279.788 120.532 276.433 119.739 273.738 120.859C273.633 120.906 273.697 121.052 273.791 121.057C276.595 121.181 279.378 121.606 282.092 122.323C282.132 122.33 282.174 122.323 282.21 122.303C282.246 122.284 282.274 122.252 282.29 122.214C282.306 122.176 282.308 122.133 282.296 122.094C282.285 122.054 282.26 122.02 282.226 121.997Z" fill="#263238"/>
<path d="M291.256 136.604C291.84 137.141 290.825 139.457 290.241 139.457C289.658 139.457 246.671 123.204 246 122.767C245.329 122.329 246.583 119.803 247.476 119.984C248.368 120.165 291.256 136.604 291.256 136.604Z" fill="#263238"/>
<path d="M256.668 114.641C254.335 112.139 250.451 115.755 252.784 118.263C255.117 120.77 259.001 117.143 256.668 114.641Z" fill="white"/>
<path d="M250.288 104L277.74 112.803C277.74 112.803 277.32 77.3878 276.574 65.2074C275.99 55.7337 264.638 49.6377 254.628 55.6871C241.257 63.7724 235.15 68.2758 228.762 72.756L227.554 71.6651L210.637 71.3268C210.637 71.3268 209.231 91.3416 231.177 97.9918C239.111 100.401 249.803 91.9833 249.809 92.2633C249.873 93.2725 250.288 104 250.288 104Z" fill="#455A64"/>
<path d="M249.943 92.3857C249.943 90.5423 250.171 88.6814 250.282 86.838C250.393 84.9946 250.492 83.2679 250.603 81.4828C250.836 77.8835 251.011 74.2667 251.285 70.6675C251.437 68.6491 251.658 66.6307 251.868 64.6181C251.865 64.6105 251.86 64.604 251.853 64.5994C251.847 64.5949 251.839 64.5924 251.83 64.5924C251.822 64.5924 251.814 64.5949 251.808 64.5994C251.801 64.604 251.796 64.6105 251.793 64.6181C251.489 66.4732 251.211 68.3302 250.958 70.1891C250.958 69.8391 250.958 69.4949 250.929 69.1566C250.883 68.2174 250.818 67.284 250.754 66.3506C250.754 66.3429 250.751 66.3355 250.746 66.33C250.74 66.3246 250.733 66.3215 250.725 66.3215C250.717 66.3215 250.71 66.3246 250.704 66.33C250.699 66.3355 250.696 66.3429 250.696 66.3506C250.725 67.2665 250.76 68.1882 250.807 69.1099C250.807 69.5708 250.877 70.0316 250.918 70.4924C250.188 75.7006 249.787 80.9495 249.716 86.208C249.716 88.2731 249.862 90.344 249.844 92.409C249.838 92.4615 249.943 92.4499 249.943 92.3857Z" fill="#263238"/>
<path d="M253.111 99.742C252.825 97.2336 252.743 90.0292 252.685 87.5208C252.557 82.4456 252.65 77.3821 252.872 72.3127C253 69.4485 253.21 66.5959 253.426 63.7375C253.426 63.7375 253.426 63.7083 253.397 63.7375C252.737 68.7501 252.33 73.7927 252.177 78.8463C251.997 83.904 252.522 98.0153 253.012 99.7595C253.017 99.7696 253.025 99.7779 253.035 99.783C253.045 99.7881 253.057 99.7898 253.068 99.7878C253.079 99.7858 253.089 99.7803 253.097 99.7721C253.105 99.7638 253.109 99.7533 253.111 99.742Z" fill="#263238"/>
<path d="M250.101 66.0416C246.548 69.7633 242.984 73.4385 239.437 77.1544C237.64 79.0328 235.843 80.9054 234.053 82.7955C233.212 83.6822 232.372 84.5863 231.527 85.4614C230.87 86.2263 230.043 86.8259 229.112 87.2114C228.262 87.4363 227.382 87.5249 226.504 87.4739C225.53 87.5031 224.55 87.5615 223.587 87.5615C223.54 87.5615 223.511 87.6665 223.552 87.6665C224.41 87.6665 225.244 87.7306 226.096 87.7656C226.872 87.8326 227.653 87.8326 228.429 87.7656C229.273 87.6506 230.064 87.2848 230.698 86.7156C231.561 85.9415 232.377 85.1176 233.142 84.248C236.755 80.4095 240.36 76.5516 243.958 72.6743C246.005 70.475 248.041 68.2583 250.101 66.0707C250.118 66.0474 250.112 66.0299 250.101 66.0416Z" fill="#263238"/>
<path d="M251.483 100.127C253.152 100.611 254.785 101.253 256.424 101.824L261.365 103.522C264.65 104.654 275.984 108.189 276.906 108.323C276.964 108.323 276.988 108.241 276.906 108.218C276.171 107.821 268.838 105.301 267.181 104.782C263.874 103.703 260.537 102.728 257.206 101.725C256.255 101.433 255.293 101.142 254.342 100.891C253.391 100.64 252.423 100.36 251.483 100.039C251.454 100.016 251.419 100.109 251.483 100.127Z" fill="#263238"/>
<path d="M220.169 148.831L211.891 169.435C210.287 174.417 208.975 178.81 208.496 181.143C208.496 181.143 208.496 181.143 208.496 181.184C208.329 181.719 208.285 182.286 208.368 182.841V182.881C209.535 184.357 248.94 198.34 250.48 198.369C252.02 198.399 252.23 194.012 251.11 192.244C249.99 190.477 237.314 178.378 237.314 178.378L244.723 156.835L220.169 148.831Z" fill="#CB867D"/>
<path d="M250.492 198.387C248.952 198.358 209.54 184.387 208.385 182.899C208.385 182.899 208.385 182.899 208.385 182.858C208.302 182.303 208.346 181.737 208.514 181.201C208.51 181.195 208.509 181.188 208.509 181.181C208.509 181.174 208.51 181.167 208.514 181.161C208.986 178.827 210.304 174.429 211.909 169.459L213.105 166.46L238.585 174.685L237.32 178.378C237.32 178.378 250.007 190.477 251.122 192.25C252.236 194.024 252.032 198.387 250.492 198.387Z" fill="#EBEBEB"/>
<path d="M250.527 198.329C248.975 198.276 209.476 183.546 208.333 182.03C207.884 181.446 211.862 169.511 211.891 169.435L237.751 177.538L237.582 177.964C237.582 177.964 250.177 190.366 251.262 192.168C252.347 193.971 252.078 198.387 250.527 198.329Z" fill="#FFC727"/>
<path opacity="0.3" d="M250.527 198.329C248.975 198.276 209.476 183.546 208.333 182.03C207.884 181.446 211.862 169.511 211.891 169.435L237.751 177.538L237.582 177.964C237.582 177.964 250.177 190.366 251.262 192.168C252.347 193.971 252.078 198.387 250.527 198.329Z" fill="black"/>
<path d="M239.694 178.839C237.255 177.374 233.901 176.581 231.206 177.701C231.101 177.742 231.165 177.894 231.258 177.899C234.063 178.023 236.846 178.448 239.56 179.165C239.6 179.172 239.642 179.165 239.678 179.145C239.714 179.125 239.742 179.094 239.758 179.056C239.773 179.018 239.776 178.975 239.764 178.936C239.752 178.896 239.728 178.862 239.694 178.839Z" fill="#263238"/>
<path d="M241.158 180.688C238.725 179.218 235.371 178.425 232.67 179.521C232.565 179.568 232.629 179.714 232.723 179.72C235.529 179.846 238.314 180.272 241.03 180.991C241.066 180.993 241.101 180.984 241.132 180.965C241.162 180.946 241.186 180.918 241.2 180.885C241.214 180.852 241.218 180.815 241.21 180.78C241.203 180.744 241.184 180.712 241.158 180.688Z" fill="#263238"/>
<path d="M242.628 182.531C240.19 181.067 236.835 180.274 234.134 181.394C234.029 181.435 234.094 181.58 234.193 181.586C236.997 181.715 239.78 182.142 242.494 182.858C242.534 182.865 242.576 182.858 242.612 182.838C242.648 182.818 242.677 182.787 242.692 182.749C242.708 182.71 242.71 182.668 242.698 182.629C242.687 182.589 242.662 182.555 242.628 182.531Z" fill="#263238"/>
<path d="M251.659 197.133C252.242 197.669 251.227 199.985 250.644 199.985C250.06 199.985 207.067 183.733 206.396 183.295C205.725 182.858 206.98 180.332 207.878 180.519C208.776 180.705 251.659 197.133 251.659 197.133Z" fill="#263238"/>
<path d="M217.035 175.175C214.702 172.673 210.818 176.289 213.151 178.791C215.484 181.293 219.368 177.677 217.035 175.175Z" fill="white"/>
<path d="M241.065 173.717L212.142 162.167C212.142 162.167 230.028 122.3 229.643 121.524C228.348 118.835 202.913 113.264 195.557 101.994C187.77 90.0641 199.757 71.0176 199.757 71.0176L224.591 71.6009C224.591 71.6009 222.438 86.1439 223.354 87.2931C223.937 88.0632 256.769 101.066 260.764 109.461C266.884 122.312 241.065 173.717 241.065 173.717Z" fill="#455A64"/>
<path d="M262.252 113.946C262.05 112.614 261.632 111.324 261.015 110.125C260.311 108.828 259.409 107.647 258.344 106.625C256.084 104.511 253.629 102.616 251.011 100.967C248.36 99.1999 245.616 97.5758 242.791 96.1016C239.927 94.5966 236.999 93.2199 234.041 91.8957C231.083 90.5715 228.108 89.3989 225.133 88.1622L223.727 87.5788C225.477 87.2813 227.192 86.9546 228.919 86.6338C228.931 86.6371 228.944 86.6376 228.956 86.6352C228.969 86.6328 228.98 86.6276 228.99 86.62C229 86.6124 229.008 86.6026 229.014 86.5913C229.02 86.58 229.023 86.5676 229.023 86.5551C229.023 86.5425 229.02 86.5301 229.014 86.5188C229.008 86.5076 229 86.4977 228.99 86.4901C228.98 86.4825 228.969 86.4773 228.956 86.4749C228.944 86.4725 228.931 86.473 228.919 86.4763C225.563 86.3982 222.224 86.9686 219.084 88.1564C219.075 88.1597 219.067 88.1656 219.062 88.1735C219.056 88.1813 219.053 88.1906 219.053 88.2001C219.053 88.2096 219.056 88.2189 219.062 88.2268C219.067 88.2346 219.075 88.2406 219.084 88.2439C220.566 88.0864 222.036 87.8589 223.5 87.6138C226.177 88.7805 228.843 90.0231 231.509 91.2423C234.385 92.5607 237.255 93.9199 240.055 95.4016C245.609 98.3184 251.063 101.562 255.923 105.569C258.128 107.384 260.123 109.49 260.986 112.272C261.785 114.856 261.57 117.633 261.097 120.258C260.471 123.19 259.68 126.084 258.729 128.927C257.725 132.17 256.671 135.4 255.567 138.616C254.458 141.825 248.222 158.31 247.802 158.987C247.744 159.086 247.902 159.191 247.972 159.098C248.462 158.468 258.023 134.661 259.055 131.371C259.989 128.338 260.951 125.293 261.663 122.195C262.378 119.507 262.578 116.708 262.252 113.946Z" fill="#263238"/>
<path d="M234.047 118.707C233.238 118.288 232.393 117.944 231.521 117.68L228.663 116.577L223.028 114.413C219.417 113.019 215.782 111.677 212.201 110.225C206.087 107.745 199.618 104.222 197.191 97.6651C196.63 96.1529 196.369 94.5461 196.421 92.9341C196.536 90.9701 196.813 89.019 197.249 87.1005C198.02 83.2117 199.099 79.3904 200.475 75.6726C200.808 74.7568 201.181 73.8584 201.56 72.9659C201.589 72.9076 201.502 72.8667 201.479 72.925C199.943 76.5077 198.674 80.1987 197.681 83.9679C197.195 85.8502 196.783 87.75 196.444 89.6673C196.075 91.4151 195.968 93.2083 196.129 94.9875C196.94 101.463 202.359 106.019 207.86 108.755C211.25 110.44 214.861 111.671 218.361 113.048L229.485 117.307L232.268 118.374C233.02 118.66 234.426 118.928 234.38 119.967C234.325 120.375 234.197 120.771 234.001 121.133L233.353 122.574L232.087 125.374C230.454 129.014 228.824 132.657 227.199 136.301C223.926 143.633 223.448 144.677 220.198 152.051C219.796 152.967 219.393 153.877 218.997 154.793C218.992 154.797 218.989 154.803 218.987 154.809C218.985 154.815 218.985 154.822 218.986 154.828C218.987 154.834 218.99 154.84 218.994 154.845C218.998 154.85 219.003 154.854 219.008 154.857C219.014 154.86 219.02 154.862 219.027 154.862C219.033 154.862 219.039 154.86 219.045 154.857C219.05 154.854 219.055 154.85 219.059 154.845C219.063 154.84 219.066 154.834 219.067 154.828C222.386 147.513 223.039 146.55 226.347 139.235C228.011 135.548 229.66 131.853 231.294 128.151C232.103 126.331 232.912 124.507 233.721 122.679C234.14 121.912 234.471 121.1 234.706 120.258C234.776 119.963 234.75 119.653 234.631 119.374C234.513 119.095 234.308 118.861 234.047 118.707Z" fill="#263238"/>
<path d="M241.659 166.886C240.102 166.145 238.568 165.363 236.992 164.692C235.417 164.021 233.796 163.374 232.191 162.738C229.002 161.482 225.79 160.288 222.554 159.156C220.729 158.515 218.885 157.925 217.071 157.26C217.018 157.26 217.001 157.336 217.071 157.354C220.338 158.55 223.546 159.932 226.772 161.245C229.998 162.557 233.078 163.829 236.252 165.077C238.031 165.777 239.845 166.39 241.642 167.043C241.683 167.084 241.735 166.932 241.659 166.886Z" fill="#263238"/>
<path d="M202.324 88.0861C203.809 87.7368 205.271 87.2925 206.699 86.7561C207.866 86.3244 209.103 85.8869 209.966 84.9127C211.64 83.0109 211.903 80.2458 211.838 77.8016C211.838 77.7432 211.938 77.7374 211.943 77.8016C212.13 80.415 212.62 83.3609 210.742 85.531C209.781 86.5312 208.541 87.2183 207.183 87.5027C205.599 87.8997 203.979 88.1323 202.347 88.1969C202.277 88.1969 202.254 88.0978 202.324 88.0861Z" fill="#263238"/>
<path d="M219.299 42.375C234.327 39.4583 250.415 36.3548 250.964 31.093C251.547 25.2594 238.13 22.9669 237.308 23.3519C236.409 23.7777 225.524 29.4479 216.96 36.1856C207.574 43.5592 215.589 43.0984 219.299 42.375Z" fill="#CB867D"/>
<path opacity="0.1" d="M219.335 42.3749C225.139 41.2432 231.101 40.0882 236.252 38.7932L215.881 37.0723C208.251 43.5242 215.747 43.0633 219.335 42.3749Z" fill="black"/>
<path d="M188.96 93.8617C189.065 93.9842 230.856 81.6929 231.282 81.2262C231.865 80.5671 223.051 48.0043 218.53 39.7498C216.931 36.8331 209.651 35.4039 206.659 38.1281C195.808 48.0043 188.58 93.4242 188.96 93.8617Z" fill="#FFE643"/>
<path d="M217.229 43.2618C215.053 44.236 209.937 41.3075 207.86 38.7874C207.72 38.6124 207.627 36.5182 207.394 33.9864C207.248 32.4464 207.05 30.7372 206.758 29.1913C206.694 28.8704 207.884 29.2496 207.884 29.2496L209.978 29.3546L216.908 29.6988C216.722 31.7388 216.786 33.7939 217.101 35.8182C217.142 36.032 217.204 36.2411 217.287 36.4424C217.287 36.4715 217.287 36.5007 217.322 36.5415C217.748 37.7141 219.335 42.3226 217.229 43.2618Z" fill="#CB867D"/>
<path d="M217.288 36.4421C217.288 36.4713 217.288 36.5004 217.323 36.5413C216.999 36.6503 216.668 36.7322 216.331 36.7863C209.774 37.883 207.376 29.7335 207.376 29.7335L209.978 29.3544L216.908 29.6985C216.722 31.7385 216.787 33.7937 217.101 35.8179C217.142 36.0317 217.205 36.2408 217.288 36.4421Z" fill="#263238"/>
<path d="M203.17 19.1981C202.966 22.8499 207.172 32.2361 210.123 33.8344C214.411 36.1679 220.227 35.0478 221.89 30.171C223.506 25.44 217.806 13.3063 214.621 11.982C209.919 10.022 203.467 13.7963 203.17 19.1981Z" fill="#CB867D"/>
<path d="M214.405 23.2C214.405 23.2 214.37 23.2524 214.405 23.2816C214.703 23.9057 214.942 24.6697 214.464 25.1363C214.464 25.1363 214.464 25.1771 214.464 25.1655C215.117 24.7572 214.79 23.7482 214.405 23.2Z" fill="#263238"/>
<path d="M213.548 22.7975C212.492 23.1708 213.32 25.2471 214.294 24.903C215.268 24.5589 214.428 22.4767 213.548 22.7975Z" fill="#263238"/>
<path d="M218.01 21.631C218.01 21.631 218.074 21.631 218.086 21.666C218.319 22.3192 218.698 23.0249 219.363 23.0074C219.363 23.0074 219.398 23.0424 219.363 23.0482C218.623 23.2349 218.127 22.29 218.01 21.631Z" fill="#263238"/>
<path d="M218.319 20.7324C219.322 20.2483 220.226 22.2897 219.299 22.7446C218.372 23.1995 217.479 21.1465 218.319 20.7324Z" fill="#263238"/>
<path d="M212.334 22.1672C212.585 21.9805 212.789 21.7706 213.029 21.5839C213.299 21.4056 213.504 21.1434 213.612 20.8374C213.626 20.7339 213.606 20.6286 213.554 20.5378C213.503 20.4471 213.422 20.376 213.326 20.3358C213.121 20.2775 212.904 20.2766 212.698 20.3331C212.492 20.3897 212.306 20.5016 212.16 20.6566C211.822 20.9178 211.592 21.2932 211.512 21.7122C211.5 21.8124 211.518 21.9138 211.564 22.0036C211.61 22.0933 211.682 22.1673 211.77 22.2162C211.859 22.265 211.959 22.2864 212.06 22.2777C212.16 22.2689 212.256 22.2305 212.334 22.1672Z" fill="#263238"/>
<path d="M218.71 19.3674C218.41 19.4234 218.106 19.4624 217.801 19.484C217.485 19.5658 217.152 19.5433 216.85 19.4199C216.761 19.363 216.694 19.2782 216.659 19.1788C216.624 19.0795 216.624 18.9714 216.657 18.8716C216.754 18.6858 216.898 18.5292 217.076 18.4184C217.253 18.3076 217.457 18.2466 217.666 18.2417C218.086 18.1611 218.521 18.2401 218.885 18.4634C218.966 18.5186 219.029 18.5962 219.066 18.6868C219.104 18.7773 219.113 18.8768 219.095 18.9729C219.076 19.069 219.03 19.1575 218.962 19.2276C218.893 19.2977 218.806 19.3463 218.71 19.3674Z" fill="#263238"/>
<path d="M215.834 29.2668C216.037 29.402 216.281 29.46 216.523 29.4301C216.76 29.3312 216.974 29.1843 217.152 28.9985C217.152 28.9985 217.199 28.9985 217.193 28.9985C217.151 29.1616 217.067 29.3104 216.948 29.4294C216.829 29.5485 216.68 29.6333 216.517 29.6751C216.372 29.6917 216.225 29.6658 216.095 29.6005C215.964 29.5353 215.855 29.4335 215.782 29.3077C215.758 29.2902 215.834 29.2552 215.834 29.2668Z" fill="#263238"/>
<path d="M215.747 27.0737C216.009 27.2627 216.308 27.395 216.624 27.4623C216.941 27.5295 217.268 27.5303 217.584 27.4646C217.864 27.4082 218.135 27.314 218.389 27.1846C218.439 27.1664 218.487 27.1408 218.529 27.1087L218.663 27.0329C218.695 27.0119 218.719 26.9812 218.732 26.9454C218.744 26.9097 218.745 26.8707 218.733 26.8346C218.725 26.8127 218.715 26.7913 218.704 26.7704V26.7121C218.523 26.2104 218.173 25.4754 218.173 25.4754C218.395 25.4754 219.48 25.5454 219.34 25.2945C218.388 23.0823 217.215 20.9716 215.84 18.9943C215.829 18.9842 215.816 18.9777 215.801 18.9759C215.786 18.974 215.771 18.9769 215.758 18.984C215.745 18.9911 215.735 19.0022 215.729 19.0155C215.722 19.0289 215.721 19.0439 215.723 19.0585C216.587 21.106 217.8 22.9903 218.698 25.0378C218.307 25.0098 217.914 25.0412 217.532 25.1312C217.468 25.1778 218.226 26.5371 218.29 26.7704C217.9 26.9735 217.474 27.0958 217.036 27.1298C216.598 27.1639 216.157 27.1091 215.741 26.9687C215.723 26.9746 215.688 27.0387 215.747 27.0737Z" fill="#263238"/>
<path d="M218.01 27.056C217.878 27.5182 217.629 27.9383 217.286 28.275C217.095 28.4544 216.852 28.5687 216.592 28.6016C216.009 28.6716 215.822 28.205 215.758 27.7617C215.731 27.5273 215.731 27.2905 215.758 27.056C216.49 27.2944 217.278 27.2944 218.01 27.056Z" fill="#263238"/>
<path d="M217.287 28.2752C217.096 28.4545 216.853 28.5688 216.593 28.6018C216.009 28.6718 215.823 28.2052 215.759 27.7619C216.034 27.6642 216.334 27.6617 216.611 27.7548C216.888 27.8478 217.126 28.031 217.287 28.2752Z" fill="#FF98B9"/>
<path d="M205.947 27.5461C207.458 27.4761 208.012 25.4694 208.088 24.4893C208.163 23.5093 205.953 18.9125 206.203 17.3958C206.454 15.879 207.656 14.689 208.904 14.654C210.153 14.619 212.119 15.6282 212.935 15.2723C213.752 14.9165 213.355 13.0323 213.939 12.8398C215.228 12.4198 217.707 15.0507 218.401 16.3866C218.401 16.3866 216.325 10.0222 209.966 11.4981C203.771 12.9389 202.692 17.3316 202.762 19.3208C202.902 23.1301 205.947 27.5461 205.947 27.5461Z" fill="#263238"/>
<path d="M207.23 26.6886C207.23 26.6886 204.18 24.116 202.955 25.2885C201.729 26.4611 204.611 30.597 206.455 30.7779C206.691 30.8201 206.933 30.8132 207.167 30.7578C207.4 30.7024 207.62 30.5995 207.812 30.4556C208.004 30.3117 208.164 30.1299 208.283 29.9214C208.402 29.7129 208.476 29.4822 208.502 29.2437L207.23 26.6886Z" fill="#CB867D"/>
<path d="M203.812 26.455V26.5016C205.124 26.6649 206.034 27.5923 206.774 28.613C206.674 28.5134 206.553 28.4367 206.42 28.388C206.287 28.3394 206.145 28.3199 206.004 28.331C205.863 28.3421 205.726 28.3834 205.602 28.4522C205.479 28.521 205.371 28.6156 205.287 28.7296C205.287 28.7588 205.287 28.7996 205.34 28.7879C205.529 28.6656 205.751 28.6055 205.976 28.616C206.201 28.6264 206.417 28.7069 206.594 28.8462C206.89 29.0784 207.16 29.3424 207.399 29.6336C207.486 29.7269 207.661 29.6336 207.585 29.5053C207.2 27.9714 205.468 26.175 203.812 26.455Z" fill="#263238"/>
<path d="M215.671 30.177C215.908 30.2714 216.165 30.3042 216.418 30.2726C216.671 30.241 216.912 30.1459 217.118 29.9962C217.24 30.2869 217.311 30.5968 217.328 30.9119C217.293 31.022 217.25 31.1292 217.199 31.2327L217.077 30.9061C217.077 30.9061 217.024 31.9209 216.774 32.1717C216.605 32.0076 216.445 31.8343 216.295 31.6526C216.189 31.4688 216.105 31.273 216.045 31.0694L216.255 31.7693C216.043 31.5658 215.88 31.3165 215.779 31.0406C215.678 30.7647 215.641 30.4693 215.671 30.177Z" fill="#263238"/>
<path d="M206.361 39.184C211.459 39.184 212.229 59.4263 204.138 59.1113C195.86 58.7905 200.241 39.184 206.361 39.184Z" fill="#CB867D"/>
<path d="M201.77 42.6316C193.475 56.9529 181.061 85.5723 178.821 90.2682C177.298 93.4592 194.519 101.591 195.23 99.2752C196.135 96.3001 207.382 62.8915 208.14 45.8167C208.49 37.9181 204.424 38.0698 201.77 42.6316Z" fill="#CB867D"/>
<path d="M195.68 97.6885C195.295 100.605 193.347 106.404 191.865 107.296C190.383 108.189 182.729 107.967 178.856 107.967C174.983 107.967 174.23 106.888 174.288 105.558C174.347 104.228 182.455 103.971 182.455 103.971C182.455 103.971 171.611 107.08 168.887 107.588C166.162 108.096 159.874 109.682 158.97 107.419C158.561 106.398 160.282 105.365 160.282 105.365C160.282 105.365 157.645 106.135 157.225 104.829C156.747 103.335 158.847 102.495 158.847 102.495C158.847 102.495 157.196 102.828 157.161 101.614C157.074 98.896 167.387 97.5602 167.387 97.5602C167.387 97.5602 159.489 101.404 159.22 99.1877C158.87 96.1193 175.053 92.7708 176.721 91.4116C177.96 90.4087 179.12 89.3127 180.192 88.1332L195.68 97.6885Z" fill="#CB867D"/>
<path d="M174.347 106.258C174.322 106.068 174.342 105.875 174.405 105.694C174.469 105.514 174.575 105.351 174.715 105.219C174.994 104.965 175.313 104.758 175.66 104.607C176.375 104.301 177.117 104.061 177.876 103.889C179.399 103.504 180.962 103.23 182.543 102.828C180.934 102.802 179.329 102.983 177.765 103.364C176.969 103.548 176.201 103.84 175.485 104.234C175.116 104.442 174.793 104.722 174.534 105.056C174.402 105.224 174.316 105.422 174.283 105.633C174.251 105.843 174.273 106.058 174.347 106.258Z" fill="#263238"/>
<path d="M160.294 105.389C161.408 105.12 162.51 104.805 163.607 104.485C164.704 104.164 165.795 103.831 166.885 103.505L170.152 102.478C171.243 102.14 172.334 101.801 173.431 101.474C172.289 101.593 171.157 101.788 170.041 102.058C168.927 102.315 167.825 102.641 166.728 102.968C165.631 103.295 164.546 103.668 163.479 104.076C162.411 104.485 161.338 104.905 160.294 105.389Z" fill="#263238"/>
<path d="M170.811 98.762C169.76 98.832 168.715 98.9783 167.685 99.1995C166.65 99.4042 165.627 99.6672 164.622 99.987C163.615 100.296 162.628 100.664 161.664 101.09C160.696 101.504 159.758 101.987 158.859 102.536C159.856 102.192 160.824 101.813 161.816 101.48C162.808 101.148 163.788 100.81 164.785 100.5C165.783 100.191 166.78 99.917 167.784 99.602C168.787 99.287 169.796 99.042 170.811 98.762Z" fill="#263238"/>
<path d="M169.219 96.1775C167.519 96.3071 165.844 96.6601 164.237 97.2275C162.619 97.76 161.079 98.5055 159.658 99.4443C161.262 98.8609 162.819 98.2776 164.412 97.7409C166.004 97.2042 167.597 96.6967 169.219 96.1775Z" fill="#263238"/>
<path d="M206.501 58.6445C207.037 55.1972 207.767 51.783 208.689 48.4183C208.153 51.8655 207.422 55.2797 206.501 58.6445Z" fill="#263238"/>
<path d="M209.003 49.8302C208.922 50.5619 208.563 51.2344 208 51.7082C208.225 51.0297 208.564 50.3945 209.003 49.8302Z" fill="#263238"/>
<path d="M249.086 33.298C244.868 33.3388 238.002 30.0195 225.856 18.5275C224.176 16.9349 236.771 6.2129 238.655 7.81712C241.024 9.84136 247.015 16.6549 248.444 19.3033C251.512 25.0144 251.921 33.263 249.086 33.298Z" fill="#CB867D"/>
<path d="M242.43 11.6088C242.43 11.6088 241.846 10.798 238.597 6.55116C236.339 3.63439 228.972 -2.09997 218.973 0.793461C215.14 1.90183 214.248 5.07527 218.43 4.63193C221.376 4.31691 223.395 3.8444 224.381 4.01357C224.381 4.01357 221.155 7.19868 221.575 9.7946C221.942 12.0615 222.471 14.2995 223.156 16.4915C223.587 16.458 224.015 16.3976 224.439 16.3107C224.69 17.3253 225.224 18.2477 225.979 18.9706C226.734 19.6935 227.679 20.1872 228.703 20.3941L242.43 11.6088Z" fill="#CB867D"/>
<path d="M235.995 4.0953C234.094 3.71029 230.045 2.96943 226.528 3.51195C222.613 4.0953 215.24 6.32954 215.718 9.2113C216.068 11.3289 218.956 10.728 218.956 10.728C218.956 10.728 216.103 12.2856 216.832 14.129C217.503 15.8032 219.708 15.2082 219.708 15.2082C219.708 15.2082 218.139 16.4507 219.096 17.9441C220.262 19.735 223.343 16.8357 226.096 17.6524C226.685 17.8333 235.995 4.0953 235.995 4.0953Z" fill="#CB867D"/>
<path d="M227.852 7.53711C224.648 7.64892 221.554 8.73569 218.985 10.6522C218.92 10.7047 218.926 10.7747 218.985 10.7456C221.801 9.33247 224.778 8.26684 227.852 7.57211C227.852 7.57211 227.875 7.53711 227.852 7.53711Z" fill="#263238"/>
<path d="M228.348 11.504C226.743 11.609 222.421 12.7582 219.679 15.1383C219.615 15.1967 219.626 15.2667 219.679 15.2317C222.418 13.6782 225.324 12.4395 228.342 11.539C228.342 11.539 228.365 11.504 228.348 11.504Z" fill="#263238"/>
<path d="M233.586 25.5276C236.707 27.3768 239.606 29.4302 242.663 31.3611C239.269 30.0604 236.179 28.0746 233.586 25.5276Z" fill="#263238"/>
<path d="M219.691 15.214C218.722 16.4271 218.652 18.0719 220.402 18.521C220.202 18.5629 219.995 18.5633 219.794 18.5222C219.593 18.4811 219.403 18.3993 219.236 18.2818C218.069 17.4828 218.559 15.7797 219.685 15.214H219.691Z" fill="#263238"/>
</svg>
